<mxfile host="app.diagrams.net" modified="2020-09-21T09:46:47.996Z" agent="5.0 (Windows NT 10.0; Win64; x64) AppleWebKit/537.36 (KHTML, like Gecko) Chrome/85.0.4183.102 Safari/537.36" etag="BIyTfwBF1r8Ko3FwPKod" version="13.7.3" type="github">
  <diagram id="Oynicm01GXaLY-hgQhCf" name="Page-1">
    <mxGraphModel dx="1038" dy="580" grid="1" gridSize="10" guides="1" tooltips="1" connect="1" arrows="1" fold="1" page="1" pageScale="1" pageWidth="827" pageHeight="1169" math="0" shadow="0">
      <root>
        <mxCell id="0" />
        <mxCell id="1" parent="0" />
        <mxCell id="x55epzEH8Qj3XEko2OVk-31" value="" style="group" vertex="1" connectable="0" parent="1">
          <mxGeometry x="40" y="220" width="120" height="140" as="geometry" />
        </mxCell>
        <mxCell id="x55epzEH8Qj3XEko2OVk-30" value="h(n) = 6" style="text;html=1;strokeColor=none;fillColor=none;align=center;verticalAlign=middle;whiteSpace=wrap;rounded=0;" vertex="1" parent="x55epzEH8Qj3XEko2OVk-31">
          <mxGeometry width="46" height="20" as="geometry" />
        </mxCell>
        <mxCell id="x55epzEH8Qj3XEko2OVk-17" value="" style="shape=table;html=1;whiteSpace=wrap;startSize=0;container=1;collapsible=0;childLayout=tableLayout;" vertex="1" parent="x55epzEH8Qj3XEko2OVk-31">
          <mxGeometry y="20" width="120" height="120" as="geometry" />
        </mxCell>
        <mxCell id="x55epzEH8Qj3XEko2OVk-18" value="" style="shape=partialRectangle;html=1;whiteSpace=wrap;collapsible=0;dropTarget=0;pointerEvents=0;fillColor=none;top=0;left=0;bottom=0;right=0;points=[[0,0.5],[1,0.5]];portConstraint=eastwest;" vertex="1" parent="x55epzEH8Qj3XEko2OVk-17">
          <mxGeometry width="120" height="40" as="geometry" />
        </mxCell>
        <mxCell id="x55epzEH8Qj3XEko2OVk-19" value="2" style="shape=partialRectangle;html=1;whiteSpace=wrap;connectable=0;fillColor=none;top=0;left=0;bottom=0;right=0;overflow=hidden;" vertex="1" parent="x55epzEH8Qj3XEko2OVk-18">
          <mxGeometry width="40" height="40" as="geometry" />
        </mxCell>
        <mxCell id="x55epzEH8Qj3XEko2OVk-20" value="0" style="shape=partialRectangle;html=1;whiteSpace=wrap;connectable=0;fillColor=none;top=0;left=0;bottom=0;right=0;overflow=hidden;" vertex="1" parent="x55epzEH8Qj3XEko2OVk-18">
          <mxGeometry x="40" width="40" height="40" as="geometry" />
        </mxCell>
        <mxCell id="x55epzEH8Qj3XEko2OVk-21" value="3" style="shape=partialRectangle;html=1;whiteSpace=wrap;connectable=0;fillColor=none;top=0;left=0;bottom=0;right=0;overflow=hidden;" vertex="1" parent="x55epzEH8Qj3XEko2OVk-18">
          <mxGeometry x="80" width="40" height="40" as="geometry" />
        </mxCell>
        <mxCell id="x55epzEH8Qj3XEko2OVk-22" value="" style="shape=partialRectangle;html=1;whiteSpace=wrap;collapsible=0;dropTarget=0;pointerEvents=0;fillColor=none;top=0;left=0;bottom=0;right=0;points=[[0,0.5],[1,0.5]];portConstraint=eastwest;" vertex="1" parent="x55epzEH8Qj3XEko2OVk-17">
          <mxGeometry y="40" width="120" height="40" as="geometry" />
        </mxCell>
        <mxCell id="x55epzEH8Qj3XEko2OVk-23" value="1" style="shape=partialRectangle;html=1;whiteSpace=wrap;connectable=0;fillColor=none;top=0;left=0;bottom=0;right=0;overflow=hidden;" vertex="1" parent="x55epzEH8Qj3XEko2OVk-22">
          <mxGeometry width="40" height="40" as="geometry" />
        </mxCell>
        <mxCell id="x55epzEH8Qj3XEko2OVk-24" value="4" style="shape=partialRectangle;html=1;whiteSpace=wrap;connectable=0;fillColor=none;top=0;left=0;bottom=0;right=0;overflow=hidden;" vertex="1" parent="x55epzEH8Qj3XEko2OVk-22">
          <mxGeometry x="40" width="40" height="40" as="geometry" />
        </mxCell>
        <mxCell id="x55epzEH8Qj3XEko2OVk-25" value="6" style="shape=partialRectangle;html=1;whiteSpace=wrap;connectable=0;fillColor=none;top=0;left=0;bottom=0;right=0;overflow=hidden;" vertex="1" parent="x55epzEH8Qj3XEko2OVk-22">
          <mxGeometry x="80" width="40" height="40" as="geometry" />
        </mxCell>
        <mxCell id="x55epzEH8Qj3XEko2OVk-26" value="" style="shape=partialRectangle;html=1;whiteSpace=wrap;collapsible=0;dropTarget=0;pointerEvents=0;fillColor=none;top=0;left=0;bottom=0;right=0;points=[[0,0.5],[1,0.5]];portConstraint=eastwest;" vertex="1" parent="x55epzEH8Qj3XEko2OVk-17">
          <mxGeometry y="80" width="120" height="40" as="geometry" />
        </mxCell>
        <mxCell id="x55epzEH8Qj3XEko2OVk-27" value="7" style="shape=partialRectangle;html=1;whiteSpace=wrap;connectable=0;fillColor=none;top=0;left=0;bottom=0;right=0;overflow=hidden;" vertex="1" parent="x55epzEH8Qj3XEko2OVk-26">
          <mxGeometry width="40" height="40" as="geometry" />
        </mxCell>
        <mxCell id="x55epzEH8Qj3XEko2OVk-28" value="5" style="shape=partialRectangle;html=1;whiteSpace=wrap;connectable=0;fillColor=none;top=0;left=0;bottom=0;right=0;overflow=hidden;" vertex="1" parent="x55epzEH8Qj3XEko2OVk-26">
          <mxGeometry x="40" width="40" height="40" as="geometry" />
        </mxCell>
        <mxCell id="x55epzEH8Qj3XEko2OVk-29" value="8" style="shape=partialRectangle;html=1;whiteSpace=wrap;connectable=0;fillColor=none;top=0;left=0;bottom=0;right=0;overflow=hidden;" vertex="1" parent="x55epzEH8Qj3XEko2OVk-26">
          <mxGeometry x="80" width="40" height="40" as="geometry" />
        </mxCell>
        <mxCell id="x55epzEH8Qj3XEko2OVk-33" value="" style="group" vertex="1" connectable="0" parent="1">
          <mxGeometry x="360" y="20" width="120" height="140" as="geometry" />
        </mxCell>
        <mxCell id="x55epzEH8Qj3XEko2OVk-3" value="" style="shape=table;html=1;whiteSpace=wrap;startSize=0;container=1;collapsible=0;childLayout=tableLayout;" vertex="1" parent="x55epzEH8Qj3XEko2OVk-33">
          <mxGeometry y="20" width="120" height="120" as="geometry" />
        </mxCell>
        <mxCell id="x55epzEH8Qj3XEko2OVk-4" value="" style="shape=partialRectangle;html=1;whiteSpace=wrap;collapsible=0;dropTarget=0;pointerEvents=0;fillColor=none;top=0;left=0;bottom=0;right=0;points=[[0,0.5],[1,0.5]];portConstraint=eastwest;" vertex="1" parent="x55epzEH8Qj3XEko2OVk-3">
          <mxGeometry width="120" height="40" as="geometry" />
        </mxCell>
        <mxCell id="x55epzEH8Qj3XEko2OVk-5" value="2" style="shape=partialRectangle;html=1;whiteSpace=wrap;connectable=0;fillColor=none;top=0;left=0;bottom=0;right=0;overflow=hidden;" vertex="1" parent="x55epzEH8Qj3XEko2OVk-4">
          <mxGeometry width="40" height="40" as="geometry" />
        </mxCell>
        <mxCell id="x55epzEH8Qj3XEko2OVk-6" value="4" style="shape=partialRectangle;html=1;whiteSpace=wrap;connectable=0;fillColor=none;top=0;left=0;bottom=0;right=0;overflow=hidden;" vertex="1" parent="x55epzEH8Qj3XEko2OVk-4">
          <mxGeometry x="40" width="40" height="40" as="geometry" />
        </mxCell>
        <mxCell id="x55epzEH8Qj3XEko2OVk-7" value="3" style="shape=partialRectangle;html=1;whiteSpace=wrap;connectable=0;fillColor=none;top=0;left=0;bottom=0;right=0;overflow=hidden;" vertex="1" parent="x55epzEH8Qj3XEko2OVk-4">
          <mxGeometry x="80" width="40" height="40" as="geometry" />
        </mxCell>
        <mxCell id="x55epzEH8Qj3XEko2OVk-8" value="" style="shape=partialRectangle;html=1;whiteSpace=wrap;collapsible=0;dropTarget=0;pointerEvents=0;fillColor=none;top=0;left=0;bottom=0;right=0;points=[[0,0.5],[1,0.5]];portConstraint=eastwest;" vertex="1" parent="x55epzEH8Qj3XEko2OVk-3">
          <mxGeometry y="40" width="120" height="40" as="geometry" />
        </mxCell>
        <mxCell id="x55epzEH8Qj3XEko2OVk-9" value="1" style="shape=partialRectangle;html=1;whiteSpace=wrap;connectable=0;fillColor=none;top=0;left=0;bottom=0;right=0;overflow=hidden;" vertex="1" parent="x55epzEH8Qj3XEko2OVk-8">
          <mxGeometry width="40" height="40" as="geometry" />
        </mxCell>
        <mxCell id="x55epzEH8Qj3XEko2OVk-10" value="0" style="shape=partialRectangle;html=1;whiteSpace=wrap;connectable=0;fillColor=none;top=0;left=0;bottom=0;right=0;overflow=hidden;" vertex="1" parent="x55epzEH8Qj3XEko2OVk-8">
          <mxGeometry x="40" width="40" height="40" as="geometry" />
        </mxCell>
        <mxCell id="x55epzEH8Qj3XEko2OVk-11" value="6" style="shape=partialRectangle;html=1;whiteSpace=wrap;connectable=0;fillColor=none;top=0;left=0;bottom=0;right=0;overflow=hidden;" vertex="1" parent="x55epzEH8Qj3XEko2OVk-8">
          <mxGeometry x="80" width="40" height="40" as="geometry" />
        </mxCell>
        <mxCell id="x55epzEH8Qj3XEko2OVk-12" value="" style="shape=partialRectangle;html=1;whiteSpace=wrap;collapsible=0;dropTarget=0;pointerEvents=0;fillColor=none;top=0;left=0;bottom=0;right=0;points=[[0,0.5],[1,0.5]];portConstraint=eastwest;" vertex="1" parent="x55epzEH8Qj3XEko2OVk-3">
          <mxGeometry y="80" width="120" height="40" as="geometry" />
        </mxCell>
        <mxCell id="x55epzEH8Qj3XEko2OVk-13" value="7" style="shape=partialRectangle;html=1;whiteSpace=wrap;connectable=0;fillColor=none;top=0;left=0;bottom=0;right=0;overflow=hidden;" vertex="1" parent="x55epzEH8Qj3XEko2OVk-12">
          <mxGeometry width="40" height="40" as="geometry" />
        </mxCell>
        <mxCell id="x55epzEH8Qj3XEko2OVk-14" value="5" style="shape=partialRectangle;html=1;whiteSpace=wrap;connectable=0;fillColor=none;top=0;left=0;bottom=0;right=0;overflow=hidden;" vertex="1" parent="x55epzEH8Qj3XEko2OVk-12">
          <mxGeometry x="40" width="40" height="40" as="geometry" />
        </mxCell>
        <mxCell id="x55epzEH8Qj3XEko2OVk-15" value="8" style="shape=partialRectangle;html=1;whiteSpace=wrap;connectable=0;fillColor=none;top=0;left=0;bottom=0;right=0;overflow=hidden;" vertex="1" parent="x55epzEH8Qj3XEko2OVk-12">
          <mxGeometry x="80" width="40" height="40" as="geometry" />
        </mxCell>
        <mxCell id="x55epzEH8Qj3XEko2OVk-16" value="h(n) = 6" style="text;html=1;strokeColor=none;fillColor=none;align=center;verticalAlign=middle;whiteSpace=wrap;rounded=0;" vertex="1" parent="x55epzEH8Qj3XEko2OVk-33">
          <mxGeometry width="46" height="20" as="geometry" />
        </mxCell>
        <mxCell id="x55epzEH8Qj3XEko2OVk-34" value="" style="group" vertex="1" connectable="0" parent="1">
          <mxGeometry x="240" y="220" width="120" height="140" as="geometry" />
        </mxCell>
        <mxCell id="x55epzEH8Qj3XEko2OVk-35" value="h(n) = 6" style="text;html=1;strokeColor=none;fillColor=none;align=center;verticalAlign=middle;whiteSpace=wrap;rounded=0;" vertex="1" parent="x55epzEH8Qj3XEko2OVk-34">
          <mxGeometry width="46" height="20" as="geometry" />
        </mxCell>
        <mxCell id="x55epzEH8Qj3XEko2OVk-36" value="" style="shape=table;html=1;whiteSpace=wrap;startSize=0;container=1;collapsible=0;childLayout=tableLayout;" vertex="1" parent="x55epzEH8Qj3XEko2OVk-34">
          <mxGeometry y="20" width="120" height="120" as="geometry" />
        </mxCell>
        <mxCell id="x55epzEH8Qj3XEko2OVk-37" value="" style="shape=partialRectangle;html=1;whiteSpace=wrap;collapsible=0;dropTarget=0;pointerEvents=0;fillColor=none;top=0;left=0;bottom=0;right=0;points=[[0,0.5],[1,0.5]];portConstraint=eastwest;" vertex="1" parent="x55epzEH8Qj3XEko2OVk-36">
          <mxGeometry width="120" height="40" as="geometry" />
        </mxCell>
        <mxCell id="x55epzEH8Qj3XEko2OVk-38" value="2" style="shape=partialRectangle;html=1;whiteSpace=wrap;connectable=0;fillColor=none;top=0;left=0;bottom=0;right=0;overflow=hidden;" vertex="1" parent="x55epzEH8Qj3XEko2OVk-37">
          <mxGeometry width="40" height="40" as="geometry" />
        </mxCell>
        <mxCell id="x55epzEH8Qj3XEko2OVk-39" value="4" style="shape=partialRectangle;html=1;whiteSpace=wrap;connectable=0;fillColor=none;top=0;left=0;bottom=0;right=0;overflow=hidden;" vertex="1" parent="x55epzEH8Qj3XEko2OVk-37">
          <mxGeometry x="40" width="40" height="40" as="geometry" />
        </mxCell>
        <mxCell id="x55epzEH8Qj3XEko2OVk-40" value="3" style="shape=partialRectangle;html=1;whiteSpace=wrap;connectable=0;fillColor=none;top=0;left=0;bottom=0;right=0;overflow=hidden;" vertex="1" parent="x55epzEH8Qj3XEko2OVk-37">
          <mxGeometry x="80" width="40" height="40" as="geometry" />
        </mxCell>
        <mxCell id="x55epzEH8Qj3XEko2OVk-41" value="" style="shape=partialRectangle;html=1;whiteSpace=wrap;collapsible=0;dropTarget=0;pointerEvents=0;fillColor=none;top=0;left=0;bottom=0;right=0;points=[[0,0.5],[1,0.5]];portConstraint=eastwest;" vertex="1" parent="x55epzEH8Qj3XEko2OVk-36">
          <mxGeometry y="40" width="120" height="40" as="geometry" />
        </mxCell>
        <mxCell id="x55epzEH8Qj3XEko2OVk-42" value="0" style="shape=partialRectangle;html=1;whiteSpace=wrap;connectable=0;fillColor=none;top=0;left=0;bottom=0;right=0;overflow=hidden;" vertex="1" parent="x55epzEH8Qj3XEko2OVk-41">
          <mxGeometry width="40" height="40" as="geometry" />
        </mxCell>
        <mxCell id="x55epzEH8Qj3XEko2OVk-43" value="1" style="shape=partialRectangle;html=1;whiteSpace=wrap;connectable=0;fillColor=none;top=0;left=0;bottom=0;right=0;overflow=hidden;" vertex="1" parent="x55epzEH8Qj3XEko2OVk-41">
          <mxGeometry x="40" width="40" height="40" as="geometry" />
        </mxCell>
        <mxCell id="x55epzEH8Qj3XEko2OVk-44" value="6" style="shape=partialRectangle;html=1;whiteSpace=wrap;connectable=0;fillColor=none;top=0;left=0;bottom=0;right=0;overflow=hidden;" vertex="1" parent="x55epzEH8Qj3XEko2OVk-41">
          <mxGeometry x="80" width="40" height="40" as="geometry" />
        </mxCell>
        <mxCell id="x55epzEH8Qj3XEko2OVk-45" value="" style="shape=partialRectangle;html=1;whiteSpace=wrap;collapsible=0;dropTarget=0;pointerEvents=0;fillColor=none;top=0;left=0;bottom=0;right=0;points=[[0,0.5],[1,0.5]];portConstraint=eastwest;" vertex="1" parent="x55epzEH8Qj3XEko2OVk-36">
          <mxGeometry y="80" width="120" height="40" as="geometry" />
        </mxCell>
        <mxCell id="x55epzEH8Qj3XEko2OVk-46" value="7" style="shape=partialRectangle;html=1;whiteSpace=wrap;connectable=0;fillColor=none;top=0;left=0;bottom=0;right=0;overflow=hidden;" vertex="1" parent="x55epzEH8Qj3XEko2OVk-45">
          <mxGeometry width="40" height="40" as="geometry" />
        </mxCell>
        <mxCell id="x55epzEH8Qj3XEko2OVk-47" value="5" style="shape=partialRectangle;html=1;whiteSpace=wrap;connectable=0;fillColor=none;top=0;left=0;bottom=0;right=0;overflow=hidden;" vertex="1" parent="x55epzEH8Qj3XEko2OVk-45">
          <mxGeometry x="40" width="40" height="40" as="geometry" />
        </mxCell>
        <mxCell id="x55epzEH8Qj3XEko2OVk-48" value="8" style="shape=partialRectangle;html=1;whiteSpace=wrap;connectable=0;fillColor=none;top=0;left=0;bottom=0;right=0;overflow=hidden;" vertex="1" parent="x55epzEH8Qj3XEko2OVk-45">
          <mxGeometry x="80" width="40" height="40" as="geometry" />
        </mxCell>
        <mxCell id="x55epzEH8Qj3XEko2OVk-49" value="" style="group" vertex="1" connectable="0" parent="1">
          <mxGeometry x="480" y="220" width="120" height="140" as="geometry" />
        </mxCell>
        <mxCell id="x55epzEH8Qj3XEko2OVk-50" value="h(n) = 7" style="text;html=1;strokeColor=none;fillColor=none;align=center;verticalAlign=middle;whiteSpace=wrap;rounded=0;" vertex="1" parent="x55epzEH8Qj3XEko2OVk-49">
          <mxGeometry width="46" height="20" as="geometry" />
        </mxCell>
        <mxCell id="x55epzEH8Qj3XEko2OVk-51" value="" style="shape=table;html=1;whiteSpace=wrap;startSize=0;container=1;collapsible=0;childLayout=tableLayout;" vertex="1" parent="x55epzEH8Qj3XEko2OVk-49">
          <mxGeometry y="20" width="120" height="120" as="geometry" />
        </mxCell>
        <mxCell id="x55epzEH8Qj3XEko2OVk-52" value="" style="shape=partialRectangle;html=1;whiteSpace=wrap;collapsible=0;dropTarget=0;pointerEvents=0;fillColor=none;top=0;left=0;bottom=0;right=0;points=[[0,0.5],[1,0.5]];portConstraint=eastwest;" vertex="1" parent="x55epzEH8Qj3XEko2OVk-51">
          <mxGeometry width="120" height="40" as="geometry" />
        </mxCell>
        <mxCell id="x55epzEH8Qj3XEko2OVk-53" value="2" style="shape=partialRectangle;html=1;whiteSpace=wrap;connectable=0;fillColor=none;top=0;left=0;bottom=0;right=0;overflow=hidden;" vertex="1" parent="x55epzEH8Qj3XEko2OVk-52">
          <mxGeometry width="40" height="40" as="geometry" />
        </mxCell>
        <mxCell id="x55epzEH8Qj3XEko2OVk-54" value="4" style="shape=partialRectangle;html=1;whiteSpace=wrap;connectable=0;fillColor=none;top=0;left=0;bottom=0;right=0;overflow=hidden;" vertex="1" parent="x55epzEH8Qj3XEko2OVk-52">
          <mxGeometry x="40" width="40" height="40" as="geometry" />
        </mxCell>
        <mxCell id="x55epzEH8Qj3XEko2OVk-55" value="3" style="shape=partialRectangle;html=1;whiteSpace=wrap;connectable=0;fillColor=none;top=0;left=0;bottom=0;right=0;overflow=hidden;" vertex="1" parent="x55epzEH8Qj3XEko2OVk-52">
          <mxGeometry x="80" width="40" height="40" as="geometry" />
        </mxCell>
        <mxCell id="x55epzEH8Qj3XEko2OVk-56" value="" style="shape=partialRectangle;html=1;whiteSpace=wrap;collapsible=0;dropTarget=0;pointerEvents=0;fillColor=none;top=0;left=0;bottom=0;right=0;points=[[0,0.5],[1,0.5]];portConstraint=eastwest;" vertex="1" parent="x55epzEH8Qj3XEko2OVk-51">
          <mxGeometry y="40" width="120" height="40" as="geometry" />
        </mxCell>
        <mxCell id="x55epzEH8Qj3XEko2OVk-57" value="1" style="shape=partialRectangle;html=1;whiteSpace=wrap;connectable=0;fillColor=none;top=0;left=0;bottom=0;right=0;overflow=hidden;" vertex="1" parent="x55epzEH8Qj3XEko2OVk-56">
          <mxGeometry width="40" height="40" as="geometry" />
        </mxCell>
        <mxCell id="x55epzEH8Qj3XEko2OVk-58" value="6" style="shape=partialRectangle;html=1;whiteSpace=wrap;connectable=0;fillColor=none;top=0;left=0;bottom=0;right=0;overflow=hidden;" vertex="1" parent="x55epzEH8Qj3XEko2OVk-56">
          <mxGeometry x="40" width="40" height="40" as="geometry" />
        </mxCell>
        <mxCell id="x55epzEH8Qj3XEko2OVk-59" value="0" style="shape=partialRectangle;html=1;whiteSpace=wrap;connectable=0;fillColor=none;top=0;left=0;bottom=0;right=0;overflow=hidden;" vertex="1" parent="x55epzEH8Qj3XEko2OVk-56">
          <mxGeometry x="80" width="40" height="40" as="geometry" />
        </mxCell>
        <mxCell id="x55epzEH8Qj3XEko2OVk-60" value="" style="shape=partialRectangle;html=1;whiteSpace=wrap;collapsible=0;dropTarget=0;pointerEvents=0;fillColor=none;top=0;left=0;bottom=0;right=0;points=[[0,0.5],[1,0.5]];portConstraint=eastwest;" vertex="1" parent="x55epzEH8Qj3XEko2OVk-51">
          <mxGeometry y="80" width="120" height="40" as="geometry" />
        </mxCell>
        <mxCell id="x55epzEH8Qj3XEko2OVk-61" value="7" style="shape=partialRectangle;html=1;whiteSpace=wrap;connectable=0;fillColor=none;top=0;left=0;bottom=0;right=0;overflow=hidden;" vertex="1" parent="x55epzEH8Qj3XEko2OVk-60">
          <mxGeometry width="40" height="40" as="geometry" />
        </mxCell>
        <mxCell id="x55epzEH8Qj3XEko2OVk-62" value="5" style="shape=partialRectangle;html=1;whiteSpace=wrap;connectable=0;fillColor=none;top=0;left=0;bottom=0;right=0;overflow=hidden;" vertex="1" parent="x55epzEH8Qj3XEko2OVk-60">
          <mxGeometry x="40" width="40" height="40" as="geometry" />
        </mxCell>
        <mxCell id="x55epzEH8Qj3XEko2OVk-63" value="8" style="shape=partialRectangle;html=1;whiteSpace=wrap;connectable=0;fillColor=none;top=0;left=0;bottom=0;right=0;overflow=hidden;" vertex="1" parent="x55epzEH8Qj3XEko2OVk-60">
          <mxGeometry x="80" width="40" height="40" as="geometry" />
        </mxCell>
        <mxCell id="x55epzEH8Qj3XEko2OVk-64" value="" style="group" vertex="1" connectable="0" parent="1">
          <mxGeometry x="680" y="220" width="120" height="140" as="geometry" />
        </mxCell>
        <mxCell id="x55epzEH8Qj3XEko2OVk-65" value="h(n) = 5" style="text;html=1;strokeColor=none;fillColor=none;align=center;verticalAlign=middle;whiteSpace=wrap;rounded=0;" vertex="1" parent="x55epzEH8Qj3XEko2OVk-64">
          <mxGeometry width="46" height="20" as="geometry" />
        </mxCell>
        <mxCell id="x55epzEH8Qj3XEko2OVk-66" value="" style="shape=table;html=1;whiteSpace=wrap;startSize=0;container=1;collapsible=0;childLayout=tableLayout;" vertex="1" parent="x55epzEH8Qj3XEko2OVk-64">
          <mxGeometry y="20" width="120" height="120" as="geometry" />
        </mxCell>
        <mxCell id="x55epzEH8Qj3XEko2OVk-67" value="" style="shape=partialRectangle;html=1;whiteSpace=wrap;collapsible=0;dropTarget=0;pointerEvents=0;fillColor=none;top=0;left=0;bottom=0;right=0;points=[[0,0.5],[1,0.5]];portConstraint=eastwest;" vertex="1" parent="x55epzEH8Qj3XEko2OVk-66">
          <mxGeometry width="120" height="40" as="geometry" />
        </mxCell>
        <mxCell id="x55epzEH8Qj3XEko2OVk-68" value="2" style="shape=partialRectangle;html=1;whiteSpace=wrap;connectable=0;fillColor=none;top=0;left=0;bottom=0;right=0;overflow=hidden;" vertex="1" parent="x55epzEH8Qj3XEko2OVk-67">
          <mxGeometry width="40" height="40" as="geometry" />
        </mxCell>
        <mxCell id="x55epzEH8Qj3XEko2OVk-69" value="4" style="shape=partialRectangle;html=1;whiteSpace=wrap;connectable=0;fillColor=none;top=0;left=0;bottom=0;right=0;overflow=hidden;" vertex="1" parent="x55epzEH8Qj3XEko2OVk-67">
          <mxGeometry x="40" width="40" height="40" as="geometry" />
        </mxCell>
        <mxCell id="x55epzEH8Qj3XEko2OVk-70" value="3" style="shape=partialRectangle;html=1;whiteSpace=wrap;connectable=0;fillColor=none;top=0;left=0;bottom=0;right=0;overflow=hidden;" vertex="1" parent="x55epzEH8Qj3XEko2OVk-67">
          <mxGeometry x="80" width="40" height="40" as="geometry" />
        </mxCell>
        <mxCell id="x55epzEH8Qj3XEko2OVk-71" value="" style="shape=partialRectangle;html=1;whiteSpace=wrap;collapsible=0;dropTarget=0;pointerEvents=0;fillColor=none;top=0;left=0;bottom=0;right=0;points=[[0,0.5],[1,0.5]];portConstraint=eastwest;" vertex="1" parent="x55epzEH8Qj3XEko2OVk-66">
          <mxGeometry y="40" width="120" height="40" as="geometry" />
        </mxCell>
        <mxCell id="x55epzEH8Qj3XEko2OVk-72" value="1" style="shape=partialRectangle;html=1;whiteSpace=wrap;connectable=0;fillColor=none;top=0;left=0;bottom=0;right=0;overflow=hidden;" vertex="1" parent="x55epzEH8Qj3XEko2OVk-71">
          <mxGeometry width="40" height="40" as="geometry" />
        </mxCell>
        <mxCell id="x55epzEH8Qj3XEko2OVk-73" value="5" style="shape=partialRectangle;html=1;whiteSpace=wrap;connectable=0;fillColor=none;top=0;left=0;bottom=0;right=0;overflow=hidden;" vertex="1" parent="x55epzEH8Qj3XEko2OVk-71">
          <mxGeometry x="40" width="40" height="40" as="geometry" />
        </mxCell>
        <mxCell id="x55epzEH8Qj3XEko2OVk-74" value="6" style="shape=partialRectangle;html=1;whiteSpace=wrap;connectable=0;fillColor=none;top=0;left=0;bottom=0;right=0;overflow=hidden;" vertex="1" parent="x55epzEH8Qj3XEko2OVk-71">
          <mxGeometry x="80" width="40" height="40" as="geometry" />
        </mxCell>
        <mxCell id="x55epzEH8Qj3XEko2OVk-75" value="" style="shape=partialRectangle;html=1;whiteSpace=wrap;collapsible=0;dropTarget=0;pointerEvents=0;fillColor=none;top=0;left=0;bottom=0;right=0;points=[[0,0.5],[1,0.5]];portConstraint=eastwest;" vertex="1" parent="x55epzEH8Qj3XEko2OVk-66">
          <mxGeometry y="80" width="120" height="40" as="geometry" />
        </mxCell>
        <mxCell id="x55epzEH8Qj3XEko2OVk-76" value="7" style="shape=partialRectangle;html=1;whiteSpace=wrap;connectable=0;fillColor=none;top=0;left=0;bottom=0;right=0;overflow=hidden;" vertex="1" parent="x55epzEH8Qj3XEko2OVk-75">
          <mxGeometry width="40" height="40" as="geometry" />
        </mxCell>
        <mxCell id="x55epzEH8Qj3XEko2OVk-77" value="0" style="shape=partialRectangle;html=1;whiteSpace=wrap;connectable=0;fillColor=none;top=0;left=0;bottom=0;right=0;overflow=hidden;" vertex="1" parent="x55epzEH8Qj3XEko2OVk-75">
          <mxGeometry x="40" width="40" height="40" as="geometry" />
        </mxCell>
        <mxCell id="x55epzEH8Qj3XEko2OVk-78" value="8" style="shape=partialRectangle;html=1;whiteSpace=wrap;connectable=0;fillColor=none;top=0;left=0;bottom=0;right=0;overflow=hidden;" vertex="1" parent="x55epzEH8Qj3XEko2OVk-75">
          <mxGeometry x="80" width="40" height="40" as="geometry" />
        </mxCell>
        <mxCell id="x55epzEH8Qj3XEko2OVk-81" value="" style="endArrow=classic;html=1;exitX=0;exitY=0.5;exitDx=0;exitDy=0;entryX=1.013;entryY=-0.044;entryDx=0;entryDy=0;entryPerimeter=0;dashed=1;" edge="1" parent="1" source="x55epzEH8Qj3XEko2OVk-12" target="x55epzEH8Qj3XEko2OVk-18">
          <mxGeometry width="50" height="50" relative="1" as="geometry">
            <mxPoint x="423" y="160" as="sourcePoint" />
            <mxPoint x="100" y="238" as="targetPoint" />
          </mxGeometry>
        </mxCell>
        <mxCell id="x55epzEH8Qj3XEko2OVk-97" value="" style="endArrow=classic;html=1;entryX=0.531;entryY=-0.021;entryDx=0;entryDy=0;entryPerimeter=0;exitX=0;exitY=0.5;exitDx=0;exitDy=0;dashed=1;" edge="1" parent="1" source="x55epzEH8Qj3XEko2OVk-12" target="x55epzEH8Qj3XEko2OVk-37">
          <mxGeometry width="50" height="50" relative="1" as="geometry">
            <mxPoint x="420" y="160" as="sourcePoint" />
            <mxPoint x="110" y="248" as="targetPoint" />
          </mxGeometry>
        </mxCell>
        <mxCell id="x55epzEH8Qj3XEko2OVk-98" value="" style="endArrow=classic;html=1;entryX=0.531;entryY=0.003;entryDx=0;entryDy=0;entryPerimeter=0;exitX=1;exitY=0.5;exitDx=0;exitDy=0;dashed=1;" edge="1" parent="1" source="x55epzEH8Qj3XEko2OVk-12" target="x55epzEH8Qj3XEko2OVk-52">
          <mxGeometry width="50" height="50" relative="1" as="geometry">
            <mxPoint x="420" y="160" as="sourcePoint" />
            <mxPoint x="313.72" y="249.15999999999985" as="targetPoint" />
          </mxGeometry>
        </mxCell>
        <mxCell id="x55epzEH8Qj3XEko2OVk-99" value="" style="endArrow=classic;html=1;entryX=-0.046;entryY=0.003;entryDx=0;entryDy=0;exitX=1;exitY=0.5;exitDx=0;exitDy=0;entryPerimeter=0;" edge="1" parent="1" source="x55epzEH8Qj3XEko2OVk-12" target="x55epzEH8Qj3XEko2OVk-67">
          <mxGeometry width="50" height="50" relative="1" as="geometry">
            <mxPoint x="420" y="160" as="sourcePoint" />
            <mxPoint x="323.72" y="259.15999999999985" as="targetPoint" />
          </mxGeometry>
        </mxCell>
        <mxCell id="x55epzEH8Qj3XEko2OVk-116" value="" style="group" vertex="1" connectable="0" parent="1">
          <mxGeometry x="360" y="380" width="120" height="140" as="geometry" />
        </mxCell>
        <mxCell id="x55epzEH8Qj3XEko2OVk-117" value="h(n) = 6" style="text;html=1;strokeColor=none;fillColor=none;align=center;verticalAlign=middle;whiteSpace=wrap;rounded=0;" vertex="1" parent="x55epzEH8Qj3XEko2OVk-116">
          <mxGeometry width="46" height="20" as="geometry" />
        </mxCell>
        <mxCell id="x55epzEH8Qj3XEko2OVk-118" value="" style="shape=table;html=1;whiteSpace=wrap;startSize=0;container=1;collapsible=0;childLayout=tableLayout;" vertex="1" parent="x55epzEH8Qj3XEko2OVk-116">
          <mxGeometry y="20" width="120" height="120" as="geometry" />
        </mxCell>
        <mxCell id="x55epzEH8Qj3XEko2OVk-119" value="" style="shape=partialRectangle;html=1;whiteSpace=wrap;collapsible=0;dropTarget=0;pointerEvents=0;fillColor=none;top=0;left=0;bottom=0;right=0;points=[[0,0.5],[1,0.5]];portConstraint=eastwest;" vertex="1" parent="x55epzEH8Qj3XEko2OVk-118">
          <mxGeometry width="120" height="40" as="geometry" />
        </mxCell>
        <mxCell id="x55epzEH8Qj3XEko2OVk-120" value="2" style="shape=partialRectangle;html=1;whiteSpace=wrap;connectable=0;fillColor=none;top=0;left=0;bottom=0;right=0;overflow=hidden;" vertex="1" parent="x55epzEH8Qj3XEko2OVk-119">
          <mxGeometry width="40" height="40" as="geometry" />
        </mxCell>
        <mxCell id="x55epzEH8Qj3XEko2OVk-121" value="4" style="shape=partialRectangle;html=1;whiteSpace=wrap;connectable=0;fillColor=none;top=0;left=0;bottom=0;right=0;overflow=hidden;" vertex="1" parent="x55epzEH8Qj3XEko2OVk-119">
          <mxGeometry x="40" width="40" height="40" as="geometry" />
        </mxCell>
        <mxCell id="x55epzEH8Qj3XEko2OVk-122" value="3" style="shape=partialRectangle;html=1;whiteSpace=wrap;connectable=0;fillColor=none;top=0;left=0;bottom=0;right=0;overflow=hidden;" vertex="1" parent="x55epzEH8Qj3XEko2OVk-119">
          <mxGeometry x="80" width="40" height="40" as="geometry" />
        </mxCell>
        <mxCell id="x55epzEH8Qj3XEko2OVk-123" value="" style="shape=partialRectangle;html=1;whiteSpace=wrap;collapsible=0;dropTarget=0;pointerEvents=0;fillColor=none;top=0;left=0;bottom=0;right=0;points=[[0,0.5],[1,0.5]];portConstraint=eastwest;" vertex="1" parent="x55epzEH8Qj3XEko2OVk-118">
          <mxGeometry y="40" width="120" height="40" as="geometry" />
        </mxCell>
        <mxCell id="x55epzEH8Qj3XEko2OVk-124" value="1" style="shape=partialRectangle;html=1;whiteSpace=wrap;connectable=0;fillColor=none;top=0;left=0;bottom=0;right=0;overflow=hidden;" vertex="1" parent="x55epzEH8Qj3XEko2OVk-123">
          <mxGeometry width="40" height="40" as="geometry" />
        </mxCell>
        <mxCell id="x55epzEH8Qj3XEko2OVk-125" value="5" style="shape=partialRectangle;html=1;whiteSpace=wrap;connectable=0;fillColor=none;top=0;left=0;bottom=0;right=0;overflow=hidden;" vertex="1" parent="x55epzEH8Qj3XEko2OVk-123">
          <mxGeometry x="40" width="40" height="40" as="geometry" />
        </mxCell>
        <mxCell id="x55epzEH8Qj3XEko2OVk-126" value="6" style="shape=partialRectangle;html=1;whiteSpace=wrap;connectable=0;fillColor=none;top=0;left=0;bottom=0;right=0;overflow=hidden;" vertex="1" parent="x55epzEH8Qj3XEko2OVk-123">
          <mxGeometry x="80" width="40" height="40" as="geometry" />
        </mxCell>
        <mxCell id="x55epzEH8Qj3XEko2OVk-127" value="" style="shape=partialRectangle;html=1;whiteSpace=wrap;collapsible=0;dropTarget=0;pointerEvents=0;fillColor=none;top=0;left=0;bottom=0;right=0;points=[[0,0.5],[1,0.5]];portConstraint=eastwest;" vertex="1" parent="x55epzEH8Qj3XEko2OVk-118">
          <mxGeometry y="80" width="120" height="40" as="geometry" />
        </mxCell>
        <mxCell id="x55epzEH8Qj3XEko2OVk-128" value="0" style="shape=partialRectangle;html=1;whiteSpace=wrap;connectable=0;fillColor=none;top=0;left=0;bottom=0;right=0;overflow=hidden;" vertex="1" parent="x55epzEH8Qj3XEko2OVk-127">
          <mxGeometry width="40" height="40" as="geometry" />
        </mxCell>
        <mxCell id="x55epzEH8Qj3XEko2OVk-129" value="7" style="shape=partialRectangle;html=1;whiteSpace=wrap;connectable=0;fillColor=none;top=0;left=0;bottom=0;right=0;overflow=hidden;" vertex="1" parent="x55epzEH8Qj3XEko2OVk-127">
          <mxGeometry x="40" width="40" height="40" as="geometry" />
        </mxCell>
        <mxCell id="x55epzEH8Qj3XEko2OVk-130" value="8" style="shape=partialRectangle;html=1;whiteSpace=wrap;connectable=0;fillColor=none;top=0;left=0;bottom=0;right=0;overflow=hidden;" vertex="1" parent="x55epzEH8Qj3XEko2OVk-127">
          <mxGeometry x="80" width="40" height="40" as="geometry" />
        </mxCell>
        <mxCell id="x55epzEH8Qj3XEko2OVk-131" value="" style="group" vertex="1" connectable="0" parent="1">
          <mxGeometry x="110" y="380" width="120" height="140" as="geometry" />
        </mxCell>
        <mxCell id="x55epzEH8Qj3XEko2OVk-132" value="h(n) = 6" style="text;html=1;strokeColor=none;fillColor=none;align=center;verticalAlign=middle;whiteSpace=wrap;rounded=0;" vertex="1" parent="x55epzEH8Qj3XEko2OVk-131">
          <mxGeometry width="46" height="20" as="geometry" />
        </mxCell>
        <mxCell id="x55epzEH8Qj3XEko2OVk-133" value="" style="shape=table;html=1;whiteSpace=wrap;startSize=0;container=1;collapsible=0;childLayout=tableLayout;" vertex="1" parent="x55epzEH8Qj3XEko2OVk-131">
          <mxGeometry y="20" width="120" height="120" as="geometry" />
        </mxCell>
        <mxCell id="x55epzEH8Qj3XEko2OVk-134" value="" style="shape=partialRectangle;html=1;whiteSpace=wrap;collapsible=0;dropTarget=0;pointerEvents=0;fillColor=none;top=0;left=0;bottom=0;right=0;points=[[0,0.5],[1,0.5]];portConstraint=eastwest;" vertex="1" parent="x55epzEH8Qj3XEko2OVk-133">
          <mxGeometry width="120" height="40" as="geometry" />
        </mxCell>
        <mxCell id="x55epzEH8Qj3XEko2OVk-135" value="2" style="shape=partialRectangle;html=1;whiteSpace=wrap;connectable=0;fillColor=none;top=0;left=0;bottom=0;right=0;overflow=hidden;" vertex="1" parent="x55epzEH8Qj3XEko2OVk-134">
          <mxGeometry width="40" height="40" as="geometry" />
        </mxCell>
        <mxCell id="x55epzEH8Qj3XEko2OVk-136" value="4" style="shape=partialRectangle;html=1;whiteSpace=wrap;connectable=0;fillColor=none;top=0;left=0;bottom=0;right=0;overflow=hidden;" vertex="1" parent="x55epzEH8Qj3XEko2OVk-134">
          <mxGeometry x="40" width="40" height="40" as="geometry" />
        </mxCell>
        <mxCell id="x55epzEH8Qj3XEko2OVk-137" value="3" style="shape=partialRectangle;html=1;whiteSpace=wrap;connectable=0;fillColor=none;top=0;left=0;bottom=0;right=0;overflow=hidden;" vertex="1" parent="x55epzEH8Qj3XEko2OVk-134">
          <mxGeometry x="80" width="40" height="40" as="geometry" />
        </mxCell>
        <mxCell id="x55epzEH8Qj3XEko2OVk-138" value="" style="shape=partialRectangle;html=1;whiteSpace=wrap;collapsible=0;dropTarget=0;pointerEvents=0;fillColor=none;top=0;left=0;bottom=0;right=0;points=[[0,0.5],[1,0.5]];portConstraint=eastwest;" vertex="1" parent="x55epzEH8Qj3XEko2OVk-133">
          <mxGeometry y="40" width="120" height="40" as="geometry" />
        </mxCell>
        <mxCell id="x55epzEH8Qj3XEko2OVk-139" value="1" style="shape=partialRectangle;html=1;whiteSpace=wrap;connectable=0;fillColor=none;top=0;left=0;bottom=0;right=0;overflow=hidden;" vertex="1" parent="x55epzEH8Qj3XEko2OVk-138">
          <mxGeometry width="40" height="40" as="geometry" />
        </mxCell>
        <mxCell id="x55epzEH8Qj3XEko2OVk-140" value="0" style="shape=partialRectangle;html=1;whiteSpace=wrap;connectable=0;fillColor=none;top=0;left=0;bottom=0;right=0;overflow=hidden;" vertex="1" parent="x55epzEH8Qj3XEko2OVk-138">
          <mxGeometry x="40" width="40" height="40" as="geometry" />
        </mxCell>
        <mxCell id="x55epzEH8Qj3XEko2OVk-141" value="6" style="shape=partialRectangle;html=1;whiteSpace=wrap;connectable=0;fillColor=none;top=0;left=0;bottom=0;right=0;overflow=hidden;" vertex="1" parent="x55epzEH8Qj3XEko2OVk-138">
          <mxGeometry x="80" width="40" height="40" as="geometry" />
        </mxCell>
        <mxCell id="x55epzEH8Qj3XEko2OVk-142" value="" style="shape=partialRectangle;html=1;whiteSpace=wrap;collapsible=0;dropTarget=0;pointerEvents=0;fillColor=none;top=0;left=0;bottom=0;right=0;points=[[0,0.5],[1,0.5]];portConstraint=eastwest;" vertex="1" parent="x55epzEH8Qj3XEko2OVk-133">
          <mxGeometry y="80" width="120" height="40" as="geometry" />
        </mxCell>
        <mxCell id="x55epzEH8Qj3XEko2OVk-143" value="7" style="shape=partialRectangle;html=1;whiteSpace=wrap;connectable=0;fillColor=none;top=0;left=0;bottom=0;right=0;overflow=hidden;" vertex="1" parent="x55epzEH8Qj3XEko2OVk-142">
          <mxGeometry width="40" height="40" as="geometry" />
        </mxCell>
        <mxCell id="x55epzEH8Qj3XEko2OVk-144" value="5" style="shape=partialRectangle;html=1;whiteSpace=wrap;connectable=0;fillColor=none;top=0;left=0;bottom=0;right=0;overflow=hidden;" vertex="1" parent="x55epzEH8Qj3XEko2OVk-142">
          <mxGeometry x="40" width="40" height="40" as="geometry" />
        </mxCell>
        <mxCell id="x55epzEH8Qj3XEko2OVk-145" value="8" style="shape=partialRectangle;html=1;whiteSpace=wrap;connectable=0;fillColor=none;top=0;left=0;bottom=0;right=0;overflow=hidden;" vertex="1" parent="x55epzEH8Qj3XEko2OVk-142">
          <mxGeometry x="80" width="40" height="40" as="geometry" />
        </mxCell>
        <mxCell id="x55epzEH8Qj3XEko2OVk-159" value="" style="group" vertex="1" connectable="0" parent="1">
          <mxGeometry x="590" y="380" width="120" height="140" as="geometry" />
        </mxCell>
        <mxCell id="x55epzEH8Qj3XEko2OVk-160" value="h(n) = 4" style="text;html=1;strokeColor=none;fillColor=none;align=center;verticalAlign=middle;whiteSpace=wrap;rounded=0;" vertex="1" parent="x55epzEH8Qj3XEko2OVk-159">
          <mxGeometry width="46" height="20" as="geometry" />
        </mxCell>
        <mxCell id="x55epzEH8Qj3XEko2OVk-161" value="" style="shape=table;html=1;whiteSpace=wrap;startSize=0;container=1;collapsible=0;childLayout=tableLayout;" vertex="1" parent="x55epzEH8Qj3XEko2OVk-159">
          <mxGeometry y="20" width="120" height="120" as="geometry" />
        </mxCell>
        <mxCell id="x55epzEH8Qj3XEko2OVk-162" value="" style="shape=partialRectangle;html=1;whiteSpace=wrap;collapsible=0;dropTarget=0;pointerEvents=0;fillColor=none;top=0;left=0;bottom=0;right=0;points=[[0,0.5],[1,0.5]];portConstraint=eastwest;" vertex="1" parent="x55epzEH8Qj3XEko2OVk-161">
          <mxGeometry width="120" height="40" as="geometry" />
        </mxCell>
        <mxCell id="x55epzEH8Qj3XEko2OVk-163" value="2" style="shape=partialRectangle;html=1;whiteSpace=wrap;connectable=0;fillColor=none;top=0;left=0;bottom=0;right=0;overflow=hidden;" vertex="1" parent="x55epzEH8Qj3XEko2OVk-162">
          <mxGeometry width="40" height="40" as="geometry" />
        </mxCell>
        <mxCell id="x55epzEH8Qj3XEko2OVk-164" value="4" style="shape=partialRectangle;html=1;whiteSpace=wrap;connectable=0;fillColor=none;top=0;left=0;bottom=0;right=0;overflow=hidden;" vertex="1" parent="x55epzEH8Qj3XEko2OVk-162">
          <mxGeometry x="40" width="40" height="40" as="geometry" />
        </mxCell>
        <mxCell id="x55epzEH8Qj3XEko2OVk-165" value="3" style="shape=partialRectangle;html=1;whiteSpace=wrap;connectable=0;fillColor=none;top=0;left=0;bottom=0;right=0;overflow=hidden;" vertex="1" parent="x55epzEH8Qj3XEko2OVk-162">
          <mxGeometry x="80" width="40" height="40" as="geometry" />
        </mxCell>
        <mxCell id="x55epzEH8Qj3XEko2OVk-166" value="" style="shape=partialRectangle;html=1;whiteSpace=wrap;collapsible=0;dropTarget=0;pointerEvents=0;fillColor=none;top=0;left=0;bottom=0;right=0;points=[[0,0.5],[1,0.5]];portConstraint=eastwest;" vertex="1" parent="x55epzEH8Qj3XEko2OVk-161">
          <mxGeometry y="40" width="120" height="40" as="geometry" />
        </mxCell>
        <mxCell id="x55epzEH8Qj3XEko2OVk-167" value="1" style="shape=partialRectangle;html=1;whiteSpace=wrap;connectable=0;fillColor=none;top=0;left=0;bottom=0;right=0;overflow=hidden;" vertex="1" parent="x55epzEH8Qj3XEko2OVk-166">
          <mxGeometry width="40" height="40" as="geometry" />
        </mxCell>
        <mxCell id="x55epzEH8Qj3XEko2OVk-168" value="5" style="shape=partialRectangle;html=1;whiteSpace=wrap;connectable=0;fillColor=none;top=0;left=0;bottom=0;right=0;overflow=hidden;" vertex="1" parent="x55epzEH8Qj3XEko2OVk-166">
          <mxGeometry x="40" width="40" height="40" as="geometry" />
        </mxCell>
        <mxCell id="x55epzEH8Qj3XEko2OVk-169" value="6" style="shape=partialRectangle;html=1;whiteSpace=wrap;connectable=0;fillColor=none;top=0;left=0;bottom=0;right=0;overflow=hidden;" vertex="1" parent="x55epzEH8Qj3XEko2OVk-166">
          <mxGeometry x="80" width="40" height="40" as="geometry" />
        </mxCell>
        <mxCell id="x55epzEH8Qj3XEko2OVk-170" value="" style="shape=partialRectangle;html=1;whiteSpace=wrap;collapsible=0;dropTarget=0;pointerEvents=0;fillColor=none;top=0;left=0;bottom=0;right=0;points=[[0,0.5],[1,0.5]];portConstraint=eastwest;" vertex="1" parent="x55epzEH8Qj3XEko2OVk-161">
          <mxGeometry y="80" width="120" height="40" as="geometry" />
        </mxCell>
        <mxCell id="x55epzEH8Qj3XEko2OVk-171" value="7" style="shape=partialRectangle;html=1;whiteSpace=wrap;connectable=0;fillColor=none;top=0;left=0;bottom=0;right=0;overflow=hidden;" vertex="1" parent="x55epzEH8Qj3XEko2OVk-170">
          <mxGeometry width="40" height="40" as="geometry" />
        </mxCell>
        <mxCell id="x55epzEH8Qj3XEko2OVk-172" value="8" style="shape=partialRectangle;html=1;whiteSpace=wrap;connectable=0;fillColor=none;top=0;left=0;bottom=0;right=0;overflow=hidden;" vertex="1" parent="x55epzEH8Qj3XEko2OVk-170">
          <mxGeometry x="40" width="40" height="40" as="geometry" />
        </mxCell>
        <mxCell id="x55epzEH8Qj3XEko2OVk-173" value="0" style="shape=partialRectangle;html=1;whiteSpace=wrap;connectable=0;fillColor=none;top=0;left=0;bottom=0;right=0;overflow=hidden;" vertex="1" parent="x55epzEH8Qj3XEko2OVk-170">
          <mxGeometry x="80" width="40" height="40" as="geometry" />
        </mxCell>
        <mxCell id="x55epzEH8Qj3XEko2OVk-191" value="" style="endArrow=classic;html=1;shadow=0;entryX=0.523;entryY=-0.145;entryDx=0;entryDy=0;entryPerimeter=0;" edge="1" parent="1" target="x55epzEH8Qj3XEko2OVk-134">
          <mxGeometry width="50" height="50" relative="1" as="geometry">
            <mxPoint x="740" y="360" as="sourcePoint" />
            <mxPoint x="580" y="470" as="targetPoint" />
          </mxGeometry>
        </mxCell>
        <mxCell id="x55epzEH8Qj3XEko2OVk-192" value="" style="endArrow=classic;html=1;shadow=0;entryX=0.517;entryY=-0.145;entryDx=0;entryDy=0;entryPerimeter=0;" edge="1" parent="1" target="x55epzEH8Qj3XEko2OVk-119">
          <mxGeometry width="50" height="50" relative="1" as="geometry">
            <mxPoint x="740" y="360" as="sourcePoint" />
            <mxPoint x="232.76" y="484.20000000000005" as="targetPoint" />
          </mxGeometry>
        </mxCell>
        <mxCell id="x55epzEH8Qj3XEko2OVk-193" value="" style="endArrow=classic;html=1;shadow=0;entryX=0.53;entryY=-0.065;entryDx=0;entryDy=0;entryPerimeter=0;rounded=1;" edge="1" parent="1" target="x55epzEH8Qj3XEko2OVk-162">
          <mxGeometry width="50" height="50" relative="1" as="geometry">
            <mxPoint x="740" y="360" as="sourcePoint" />
            <mxPoint x="242.76" y="494.20000000000005" as="targetPoint" />
          </mxGeometry>
        </mxCell>
        <mxCell id="x55epzEH8Qj3XEko2OVk-239" value="" style="group" vertex="1" connectable="0" parent="1">
          <mxGeometry x="470" y="550" width="120" height="140" as="geometry" />
        </mxCell>
        <mxCell id="x55epzEH8Qj3XEko2OVk-240" value="h(n) = 5" style="text;html=1;strokeColor=none;fillColor=none;align=center;verticalAlign=middle;whiteSpace=wrap;rounded=0;" vertex="1" parent="x55epzEH8Qj3XEko2OVk-239">
          <mxGeometry width="46" height="20" as="geometry" />
        </mxCell>
        <mxCell id="x55epzEH8Qj3XEko2OVk-241" value="" style="shape=table;html=1;whiteSpace=wrap;startSize=0;container=1;collapsible=0;childLayout=tableLayout;" vertex="1" parent="x55epzEH8Qj3XEko2OVk-239">
          <mxGeometry y="20" width="120" height="120" as="geometry" />
        </mxCell>
        <mxCell id="x55epzEH8Qj3XEko2OVk-242" value="" style="shape=partialRectangle;html=1;whiteSpace=wrap;collapsible=0;dropTarget=0;pointerEvents=0;fillColor=none;top=0;left=0;bottom=0;right=0;points=[[0,0.5],[1,0.5]];portConstraint=eastwest;" vertex="1" parent="x55epzEH8Qj3XEko2OVk-241">
          <mxGeometry width="120" height="40" as="geometry" />
        </mxCell>
        <mxCell id="x55epzEH8Qj3XEko2OVk-243" value="2" style="shape=partialRectangle;html=1;whiteSpace=wrap;connectable=0;fillColor=none;top=0;left=0;bottom=0;right=0;overflow=hidden;" vertex="1" parent="x55epzEH8Qj3XEko2OVk-242">
          <mxGeometry width="40" height="40" as="geometry" />
        </mxCell>
        <mxCell id="x55epzEH8Qj3XEko2OVk-244" value="4" style="shape=partialRectangle;html=1;whiteSpace=wrap;connectable=0;fillColor=none;top=0;left=0;bottom=0;right=0;overflow=hidden;" vertex="1" parent="x55epzEH8Qj3XEko2OVk-242">
          <mxGeometry x="40" width="40" height="40" as="geometry" />
        </mxCell>
        <mxCell id="x55epzEH8Qj3XEko2OVk-245" value="3" style="shape=partialRectangle;html=1;whiteSpace=wrap;connectable=0;fillColor=none;top=0;left=0;bottom=0;right=0;overflow=hidden;" vertex="1" parent="x55epzEH8Qj3XEko2OVk-242">
          <mxGeometry x="80" width="40" height="40" as="geometry" />
        </mxCell>
        <mxCell id="x55epzEH8Qj3XEko2OVk-246" value="" style="shape=partialRectangle;html=1;whiteSpace=wrap;collapsible=0;dropTarget=0;pointerEvents=0;fillColor=none;top=0;left=0;bottom=0;right=0;points=[[0,0.5],[1,0.5]];portConstraint=eastwest;" vertex="1" parent="x55epzEH8Qj3XEko2OVk-241">
          <mxGeometry y="40" width="120" height="40" as="geometry" />
        </mxCell>
        <mxCell id="x55epzEH8Qj3XEko2OVk-247" value="1" style="shape=partialRectangle;html=1;whiteSpace=wrap;connectable=0;fillColor=none;top=0;left=0;bottom=0;right=0;overflow=hidden;" vertex="1" parent="x55epzEH8Qj3XEko2OVk-246">
          <mxGeometry width="40" height="40" as="geometry" />
        </mxCell>
        <mxCell id="x55epzEH8Qj3XEko2OVk-248" value="5" style="shape=partialRectangle;html=1;whiteSpace=wrap;connectable=0;fillColor=none;top=0;left=0;bottom=0;right=0;overflow=hidden;" vertex="1" parent="x55epzEH8Qj3XEko2OVk-246">
          <mxGeometry x="40" width="40" height="40" as="geometry" />
        </mxCell>
        <mxCell id="x55epzEH8Qj3XEko2OVk-249" value="0" style="shape=partialRectangle;html=1;whiteSpace=wrap;connectable=0;fillColor=none;top=0;left=0;bottom=0;right=0;overflow=hidden;" vertex="1" parent="x55epzEH8Qj3XEko2OVk-246">
          <mxGeometry x="80" width="40" height="40" as="geometry" />
        </mxCell>
        <mxCell id="x55epzEH8Qj3XEko2OVk-250" value="" style="shape=partialRectangle;html=1;whiteSpace=wrap;collapsible=0;dropTarget=0;pointerEvents=0;fillColor=none;top=0;left=0;bottom=0;right=0;points=[[0,0.5],[1,0.5]];portConstraint=eastwest;" vertex="1" parent="x55epzEH8Qj3XEko2OVk-241">
          <mxGeometry y="80" width="120" height="40" as="geometry" />
        </mxCell>
        <mxCell id="x55epzEH8Qj3XEko2OVk-251" value="7" style="shape=partialRectangle;html=1;whiteSpace=wrap;connectable=0;fillColor=none;top=0;left=0;bottom=0;right=0;overflow=hidden;" vertex="1" parent="x55epzEH8Qj3XEko2OVk-250">
          <mxGeometry width="40" height="40" as="geometry" />
        </mxCell>
        <mxCell id="x55epzEH8Qj3XEko2OVk-252" value="8" style="shape=partialRectangle;html=1;whiteSpace=wrap;connectable=0;fillColor=none;top=0;left=0;bottom=0;right=0;overflow=hidden;" vertex="1" parent="x55epzEH8Qj3XEko2OVk-250">
          <mxGeometry x="40" width="40" height="40" as="geometry" />
        </mxCell>
        <mxCell id="x55epzEH8Qj3XEko2OVk-253" value="6" style="shape=partialRectangle;html=1;whiteSpace=wrap;connectable=0;fillColor=none;top=0;left=0;bottom=0;right=0;overflow=hidden;" vertex="1" parent="x55epzEH8Qj3XEko2OVk-250">
          <mxGeometry x="80" width="40" height="40" as="geometry" />
        </mxCell>
      </root>
    </mxGraphModel>
  </diagram>
</mxfile>
